<svg width="22" height="22" viewBox="0 0 22 22" fill="none" xmlns="http://www.w3.org/2000/svg">
<path d="M4.58325 13.75H3.66659C3.18035 13.75 2.71404 13.5569 2.37022 13.213C2.02641 12.8692 1.83325 12.4029 1.83325 11.9167V3.66668C1.83325 3.18045 2.02641 2.71413 2.37022 2.37031C2.71404 2.0265 3.18035 1.83334 3.66659 1.83334H11.9166C12.4028 1.83334 12.8691 2.0265 13.2129 2.37031C13.5568 2.71413 13.7499 3.18045 13.7499 3.66668V4.58334M10.0833 8.25001H18.3333C19.3458 8.25001 20.1666 9.07082 20.1666 10.0833V18.3333C20.1666 19.3459 19.3458 20.1667 18.3333 20.1667H10.0833C9.07073 20.1667 8.24992 19.3459 8.24992 18.3333V10.0833C8.24992 9.07082 9.07073 8.25001 10.0833 8.25001Z" stroke="currentColor" stroke-width="1.5" stroke-linecap="round" stroke-linejoin="round"/>
</svg>
