<svg width="22" height="20" viewBox="0 0 22 20" fill="none" xmlns="http://www.w3.org/2000/svg">
<rect width="22" height="20" rx="4" fill="url(#paint0_linear_7_2222)"/>
<path d="M7.5409 14.0241C7.5409 14.1401 7.63387 14.2353 7.75212 14.2353H14.2498C14.3058 14.2352 14.3595 14.2129 14.3991 14.1733C14.4387 14.1337 14.4611 14.0801 14.4613 14.0241V13.2506H7.54065L7.5409 14.0241ZM16.1945 7.24942C16.1568 7.22385 16.1119 7.21088 16.0663 7.21238C16.0207 7.21387 15.9768 7.22976 15.9408 7.25776L13.1466 9.47943L11.185 5.86701C11.1131 5.72963 10.8891 5.73159 10.815 5.86701L8.85339 9.47943L6.05913 7.25776C6.02375 7.22927 5.98007 7.21305 5.93467 7.21155C5.88927 7.21004 5.84462 7.22334 5.80743 7.24942C5.76984 7.27505 5.74152 7.31211 5.72667 7.35512C5.71182 7.39812 5.71123 7.44476 5.725 7.48812L7.46117 12.8279H14.5408L16.275 7.48812C16.2886 7.44494 16.2882 7.39854 16.2737 7.35563C16.2592 7.31272 16.2315 7.27553 16.1945 7.24942Z" fill="white"/>
<defs>
<linearGradient id="paint0_linear_7_2222" x1="1.89881" y1="-3.43434" x2="24.1223" y2="3.50157" gradientUnits="userSpaceOnUse">
<stop stop-color="#DF3939"/>
<stop offset="0.5143" stop-color="#CD9315"/>
<stop offset="1" stop-color="#E9943E"/>
</linearGradient>
</defs>
</svg>
